<svg xmlns="http://www.w3.org/2000/svg" viewBox="0 0 283 78" fill="#e2e8f0"><g clip-path="url(#clip0_932_5491)"><path d="M57.3479 0V32.3225V45.6432H82.8605V38.5176H65.4667V26.5436V0H57.3479Z" fill="#e2e8f0"></path><path d="M99.4424 46.1575C90.069 46.1575 83.4017 39.1543 83.4017 28.7964C83.4017 18.4385 90.069 11.4353 99.4424 11.4353C108.816 11.4353 115.483 18.4385 115.483 28.7964C115.483 39.1788 108.84 46.1575 99.4424 46.1575ZM99.4424 39.742C104.584 39.742 107.807 35.6037 107.807 28.7964C107.807 21.9891 104.584 17.8508 99.4424 17.8508C94.3005 17.8508 91.0776 21.9891 91.0776 28.7964C91.0776 35.6037 94.3251 39.742 99.4424 39.742Z" fill="#e2e8f0"></path><path d="M153.223 12.2678H160.825V15.8184C162.719 13.5901 165.696 11.6312 170.026 11.6312C176.989 11.6312 181.196 16.4551 181.196 23.6542V45.6433H173.594V25.858C173.594 21.7197 171.945 18.7323 167.763 18.7323C164.343 18.7323 160.85 21.279 160.85 26.0539V45.6433H153.248V12.2678H153.223Z" fill="#e2e8f0"></path><path d="M241.545 19.8342C240.586 19.7118 239.823 19.6383 238.765 19.6383C233.943 19.6383 230.277 22.7482 230.277 28.0863V45.6432H222.675V12.2678H230.277V17.2386C231.729 14.1288 235.149 12.0964 239.405 12.0964C240.29 12.0964 240.979 12.1699 241.57 12.2189L241.545 19.8342Z" fill="#e2e8f0"></path><path d="M259.406 46.1575C250.082 46.1575 243.464 39.1543 243.464 28.7964C243.464 18.4385 250.082 11.4353 259.406 11.4353C268.731 11.4353 275.349 18.4385 275.349 28.7964C275.349 39.1788 268.731 46.1575 259.406 46.1575ZM259.406 39.742C264.499 39.742 267.722 35.6037 267.722 28.7964C267.722 21.9891 264.499 17.8508 259.406 17.8508C254.314 17.8508 251.091 21.9891 251.091 28.7964C251.091 35.6037 254.314 39.742 259.406 39.742Z" fill="#e2e8f0"></path><path d="M201.886 0H186.362V45.6432H194.481V26.4212H201.911C212.047 26.4212 218.394 22.3074 218.394 13.1983C218.37 3.99134 212.022 0 201.886 0ZM201.443 19.4425H194.456V7.0032H201.443C207.274 7.0032 210.374 8.71727 210.374 13.2228C210.374 17.7284 207.274 19.4425 201.443 19.4425Z" fill="#e2e8f0"></path><path d="M117.993 36.2403C117.993 29.8738 122.741 27.0823 129.162 25.76L138.339 23.8501V23.2869C138.339 20.1036 136.69 18.1446 132.631 18.1446C129.014 18.1446 127.12 19.7853 126.234 23.042L119.075 21.3769C120.723 15.8429 125.595 11.5332 132.951 11.5332C140.946 11.5332 145.744 15.3532 145.744 23.042V37.4157C145.744 39.3257 146.58 39.8889 148.672 39.644V45.5453C143.161 46.1819 140.233 45.1045 139.101 42.362C137.01 44.7127 133.517 46.1085 129.211 46.1085C122.864 46.1085 117.993 42.2151 117.993 36.2403ZM138.339 29.2616L131.179 30.7798C127.956 31.4899 125.545 32.4939 125.545 35.4812C125.545 38.0768 127.44 39.546 130.367 39.546C134.427 39.546 138.363 37.3912 138.363 33.3264L138.339 29.2616Z" fill="#e2e8f0"></path><path d="M40.1755 0.0734558C43.3246 0.0734558 45.8833 2.62008 45.8833 5.75438C45.8833 8.88868 43.3246 11.4353 40.1755 11.4353C37.0264 11.4353 34.4678 8.88868 34.4678 5.75438C34.4678 2.62008 37.0264 0.0734558 40.1755 0.0734558Z" fill="#e2e8f0"></path><path d="M22.9293 0.0734558C26.0784 0.0734558 28.637 2.62008 28.637 5.75438C28.637 8.88868 26.0784 11.4353 22.9293 11.4353C19.7802 11.4353 17.2216 8.88868 17.2216 5.75438C17.2216 2.62008 19.7802 0.0734558 22.9293 0.0734558Z" fill="#e2e8f0"></path><path d="M5.70773 0.0734558C8.85682 0.0734558 11.4155 2.62008 11.4155 5.75438C11.4155 8.88868 8.85682 11.4353 5.70773 11.4353C2.55864 11.4353 0 8.91316 0 5.75438C0 2.59559 2.55864 0.0734558 5.70773 0.0734558Z" fill="#e2e8f0"></path><path d="M22.8555 34.3304C26.0046 34.3304 28.5386 36.877 28.5386 39.9868C28.5386 43.0966 25.98 45.6432 22.8555 45.6432C19.731 45.6432 17.1724 43.0966 17.1724 39.9868C17.1478 36.8525 19.7064 34.3304 22.8555 34.3304Z" fill="#e2e8f0"></path><path d="M5.70773 34.3304C8.85682 34.3304 11.3909 36.877 11.3909 39.9868C11.3909 43.0966 8.83222 45.6432 5.70773 45.6432C2.58324 45.6432 0.0246053 43.0966 0.0246053 39.9868C2.99116e-06 36.8525 2.55864 34.3304 5.70773 34.3304Z" fill="#e2e8f0"></path><path d="M22.9293 17.2386C26.0784 17.2386 28.637 19.7853 28.637 22.9196C28.637 26.0539 26.0784 28.6005 22.9293 28.6005C19.7802 28.6005 17.2216 26.0539 17.2216 22.9196C17.2216 19.7853 19.7802 17.2386 22.9293 17.2386Z" fill="#e2e8f0"></path><path d="M5.70773 17.2386C8.85682 17.2386 11.4155 19.7853 11.4155 22.9196C11.4155 26.0539 8.85682 28.6005 5.70773 28.6005C2.55864 28.6005 0 26.0539 0 22.9196C0 19.7853 2.55864 17.2386 5.70773 17.2386Z" fill="#e2e8f0"></path><path d="M278.276 42.1661H279.359C279.703 42.1661 279.974 42.0682 280.195 41.8968C280.392 41.7254 280.515 41.4805 280.515 41.1866C280.515 40.8438 280.417 40.599 280.245 40.452C280.072 40.3051 279.752 40.2317 279.334 40.2072H278.276V42.1661ZM278.276 42.46V44.3209H277.981V39.9133H279.26C280.294 39.9133 280.81 40.3296 280.81 41.1866C280.81 41.7009 280.54 42.0682 279.999 42.2885C280.466 42.4355 280.712 42.8028 280.712 43.3905C280.712 43.7822 280.737 44.0761 280.81 44.2475V44.3209H280.491C280.441 44.1985 280.417 43.8802 280.417 43.3905C280.417 43.0721 280.343 42.8273 280.22 42.6803C280.072 42.5334 279.851 42.46 279.506 42.46H278.276ZM275.718 42.1906C275.718 42.8517 275.865 43.4639 276.185 44.0271C276.505 44.5903 276.923 45.0555 277.464 45.3739C278.006 45.7167 278.596 45.8636 279.211 45.8636C279.826 45.8636 280.417 45.6922 280.958 45.3739C281.499 45.0311 281.917 44.5903 282.237 44.0271C282.557 43.4639 282.705 42.8517 282.705 42.1906C282.705 41.5295 282.557 40.9173 282.237 40.3541C281.917 39.7909 281.499 39.3501 280.958 39.0073C280.417 38.689 279.826 38.5176 279.211 38.5176C278.596 38.5176 278.006 38.689 277.464 39.0073C276.923 39.3257 276.505 39.7909 276.185 40.3541C275.865 40.8928 275.718 41.5295 275.718 42.1906ZM275.422 42.1906C275.422 41.4805 275.595 40.8193 275.915 40.2072C276.259 39.595 276.702 39.1053 277.292 38.7625C277.883 38.4196 278.522 38.2238 279.211 38.2238C279.9 38.2238 280.54 38.3952 281.13 38.7625C281.721 39.1053 282.188 39.595 282.508 40.2072C282.828 40.8193 283 41.4805 283 42.1906C283 42.9007 282.828 43.5619 282.508 44.1495C282.188 44.7617 281.721 45.2514 281.13 45.6187C280.54 45.986 279.9 46.1575 279.187 46.1575C278.473 46.1575 277.834 45.986 277.243 45.6187C276.653 45.2514 276.21 44.7617 275.865 44.1495C275.595 43.5374 275.422 42.8762 275.422 42.1906Z" fill="#e2e8f0"></path><path d="M19.8319 77.596H17.7628V64.0573L11.4548 77.6205H10.2444L3.93636 64.0573V77.6205H1.86485V59.537H3.9093L10.8496 74.3294L17.7628 59.537H19.8319V77.596Z" fill="#e2e8f0"></path><path d="M24.3981 75.7889C23.2614 74.3564 22.858 72.5982 22.858 70.8156C22.858 69.033 23.286 67.2748 24.3981 65.8938C25.5593 64.4613 27.402 63.6826 29.3702 63.6826C31.3384 63.6826 33.1565 64.4099 34.3152 65.8938C35.5011 67.3262 35.88 69.0844 35.88 70.8156C35.88 72.6497 35.4765 74.3319 34.3152 75.7889C33.1294 77.2948 31.363 78 29.3702 78C27.3774 78 25.5839 77.2727 24.3981 75.7889ZM33.71 70.8156C33.71 69.5105 33.4566 68.127 32.7013 67.123C31.9461 66.119 30.6815 65.6171 29.3702 65.6171C28.0589 65.6171 26.7968 66.119 26.0636 67.123C25.2813 68.127 25.0279 69.508 25.0279 70.8156C25.0279 72.1232 25.2813 73.5287 26.0636 74.5327C26.7943 75.5366 28.0564 76.0656 29.3702 76.0656C30.684 76.0656 31.9436 75.5391 32.7013 74.5327C33.4591 73.5263 33.71 72.1722 33.71 70.8156Z" fill="#e2e8f0"></path><path d="M50.5651 59.5395V77.6229H48.7469V75.8892C47.6866 77.2703 46.021 78 44.1291 78C42.2372 78 40.547 77.2458 39.4104 75.8158C38.2738 74.3833 37.8973 72.6007 37.8973 70.818C37.8973 69.0354 38.3008 67.2503 39.4104 65.8693C40.4953 64.4637 42.2372 63.6851 44.0799 63.6851C45.7947 63.6851 47.411 64.3389 48.5206 65.5191V59.5419H50.5651V59.5395ZM48.7469 70.8156C48.7469 69.4101 48.4443 67.9776 47.6374 66.9981C46.9067 66.0186 45.6938 65.5656 44.4071 65.5656C43.0441 65.5656 41.8337 66.0431 41.076 67.0985C40.3453 68.078 40.0673 69.4345 40.0673 70.8156C40.0673 72.1966 40.3207 73.5777 41.0514 74.5327C41.8091 75.5881 43.0712 76.1145 44.3579 76.1145C45.6446 76.1145 46.8821 75.6125 47.6374 74.6576C48.4443 73.6781 48.7469 72.2456 48.7469 70.8156Z" fill="#e2e8f0"></path><path d="M56.568 74.5327C57.2987 75.5366 58.5608 76.0655 59.8746 76.0655C61.1883 76.0655 62.4234 75.5391 63.1811 74.5327C63.3582 74.2804 63.4837 74.0552 63.6092 73.8054L65.629 74.6845C65.4273 75.0616 65.1739 75.4632 64.8713 75.8158C63.6854 77.2727 61.7935 78.0514 59.8746 78C57.931 77.9486 56.0883 77.2458 54.9024 75.7888C53.7658 74.3564 53.3623 72.5737 53.3623 70.8401C53.3869 69.0574 53.7658 67.3238 54.9024 65.8913C56.1129 64.4098 57.9064 63.6801 59.8746 63.6801C61.8427 63.6801 63.6338 64.4074 64.8196 65.8913C65.9562 67.3238 66.3597 69.0819 66.3597 70.8401C66.3597 71.0164 66.3597 71.2172 66.3351 71.3935H55.5864C55.638 72.5492 55.9136 73.6781 56.5705 74.5327H56.568ZM56.568 67.1475C56.0391 67.8502 55.7365 68.7538 55.6356 69.6843H64.1135C64.0127 68.7562 63.7101 67.8502 63.1811 67.1475C62.4234 66.1435 61.1883 65.6146 59.8746 65.6146C58.5608 65.6146 57.3012 66.1411 56.568 67.1475Z" fill="#e2e8f0"></path><path d="M77.133 63.9593V65.8938C76.5524 65.693 75.8463 65.5681 75.0886 65.6171C74.0282 65.6416 73.0958 65.9942 72.4635 66.621C71.2531 67.7523 71.2014 69.2338 71.2014 71.0678V77.6229H69.1324V64.0597H70.9751V66.0701C71.2531 65.5926 71.632 65.1665 72.1363 64.7649C73.0195 64.0377 74.1562 63.7095 75.2411 63.6851C75.898 63.6851 76.5278 63.761 77.133 63.9618V63.9593Z" fill="#e2e8f0"></path><path d="M91.3655 70.9405V77.6205H89.2964V70.9405C89.2964 69.006 89.0947 67.3997 87.7834 66.4202C87.1019 65.9183 86.2187 65.666 85.21 65.7175C84.3784 65.742 83.569 66.0187 82.9638 66.5451C82.334 67.0985 81.928 67.9017 81.7534 68.8052C81.6279 69.3586 81.6008 70.01 81.6008 70.6638V77.6205H79.5318V64.0573H81.3745V65.5901C81.5 65.4383 81.6525 65.289 81.8026 65.1371C82.8113 64.2336 84.1496 63.7806 85.3847 63.7316C86.723 63.6557 88.1106 64.0573 89.1955 64.8629C91.0629 66.2954 91.3901 68.4551 91.3655 70.9405Z" fill="#e2e8f0"></path><path d="M115.613 72.2481C115.311 73.252 114.831 74.2315 114.15 75.1106C112.61 77.0695 110.238 77.9975 107.714 77.9975C105.19 77.9975 102.818 77.0181 101.305 75.1106C99.8164 73.2275 99.2604 70.8915 99.285 68.58C99.3096 66.2194 99.8139 63.9079 101.305 62.0493C102.818 60.0904 105.165 59.1599 107.714 59.1599C110.262 59.1599 112.659 60.1149 114.15 62.0493C114.957 63.0802 115.461 64.2091 115.739 65.3648L113.618 65.7175C113.417 64.8384 113.062 64.0107 112.533 63.3055C111.424 61.8486 109.581 61.1458 107.714 61.1213C105.871 61.0968 104.028 61.8486 102.943 63.3055C101.834 64.738 101.479 66.6969 101.479 68.58C101.479 70.463 101.834 72.3974 102.943 73.8789C104.028 75.3113 105.871 76.0386 107.714 76.0386C109.581 76.0631 111.424 75.3113 112.533 73.8789C112.988 73.2251 113.34 72.4464 113.569 71.6677L115.613 72.2456V72.2481Z" fill="#e2e8f0"></path><path d="M126.515 63.9593V65.8938C125.934 65.693 125.228 65.5681 124.47 65.6171C123.41 65.6416 122.478 65.9942 121.845 66.621C120.635 67.7523 120.583 69.2338 120.583 71.0678V77.6229H118.514V64.0597H120.357V66.0701C120.635 65.5926 121.014 65.1665 121.518 64.7649C122.401 64.0377 123.538 63.7095 124.623 63.6851C125.28 63.6851 125.91 63.761 126.515 63.9618V63.9593Z" fill="#e2e8f0"></path><path d="M130.98 74.5327C131.711 75.5366 132.973 76.0655 134.287 76.0655C135.6 76.0655 136.835 75.5391 137.593 74.5327C137.77 74.2804 137.896 74.0552 138.021 73.8054L140.041 74.6845C139.839 75.0616 139.586 75.4632 139.283 75.8158C138.098 77.2727 136.206 78.0514 134.287 78C132.343 77.9486 130.5 77.2458 129.314 75.7888C128.178 74.3564 127.774 72.5737 127.774 70.8401C127.799 69.0574 128.178 67.3238 129.314 65.8913C130.525 64.4098 132.318 63.6801 134.287 63.6801C136.255 63.6801 138.046 64.4074 139.232 65.8913C140.368 67.3238 140.772 69.0819 140.772 70.8401C140.772 71.0164 140.772 71.2172 140.747 71.3935H129.998C130.05 72.5492 130.326 73.6781 130.983 74.5327H130.98ZM130.98 67.1475C130.451 67.8502 130.149 68.7538 130.048 69.6843H138.526C138.425 68.7562 138.122 67.8502 137.593 67.1475C136.835 66.1435 135.6 65.6146 134.287 65.6146C132.973 65.6146 131.713 66.1411 130.98 67.1475Z" fill="#e2e8f0"></path><path d="M155.457 59.5395V77.6229H153.641V75.8892C152.581 77.2703 150.915 78 149.023 78C147.131 78 145.441 77.2458 144.305 75.8158C143.168 74.3833 142.792 72.6007 142.792 70.818C142.792 69.0354 143.195 67.2503 144.305 65.8693C145.39 64.4637 147.131 63.6851 148.974 63.6851C150.689 63.6851 152.305 64.3389 153.415 65.5191V59.5419H155.459L155.457 59.5395ZM153.641 70.8156C153.641 69.4101 153.339 67.9776 152.532 66.9981C151.801 66.0186 150.588 65.5656 149.301 65.5656C147.938 65.5656 146.728 66.0431 145.97 67.0985C145.24 68.078 144.962 69.4345 144.962 70.8156C144.962 72.1966 145.215 73.5777 145.946 74.5327C146.703 75.5881 147.965 76.1145 149.252 76.1145C150.539 76.1145 151.776 75.6125 152.532 74.6576C153.339 73.6781 153.641 72.2456 153.641 70.8156Z" fill="#e2e8f0"></path><path d="M161.31 59.5395V61.7237H159.265V59.5395H161.31ZM161.31 64.0597V77.6229H159.265V64.0597H161.31Z" fill="#e2e8f0"></path><path d="M168.678 72.4978C168.678 73.6291 168.654 74.305 168.981 74.8828C169.259 75.4852 169.889 75.8378 170.57 75.8868C171.276 75.9627 172.11 75.9382 172.816 75.8109V77.618C171.908 77.8433 170.646 77.8947 169.763 77.7184C168.553 77.4931 167.618 76.9397 167.113 75.9113C166.634 74.9563 166.634 73.9009 166.634 72.5958V65.764H163.581V64.0573H166.634V60.2888H168.678V64.0573H172.816V65.764H168.678V72.4954V72.4978Z" fill="#e2e8f0"></path><path d="M195.096 65.191C195.096 66.4961 194.567 67.8037 193.758 68.7832C192.722 70.0394 191.083 70.8425 189.366 70.8425H183.764V77.6229H181.72V59.5395H189.366C190.023 59.5395 190.677 59.6643 191.283 59.8651C192.166 60.1663 192.973 60.7197 193.578 61.4225C194.538 62.4264 195.067 63.8075 195.091 65.191H195.096ZM192.975 65.191C192.951 64.236 192.596 63.308 191.915 62.6297C191.285 61.9514 190.301 61.4984 189.366 61.4984H183.764V68.8836H189.366C190.375 68.8836 191.46 68.3816 192.141 67.527C192.67 66.8732 193 66.0456 192.973 65.191H192.975Z" fill="#e2e8f0"></path><path d="M197.645 77.6229V59.1624H199.689V77.6229H197.645Z" fill="#e2e8f0"></path><path d="M203.045 66.5965C203.146 66.4202 203.298 66.1705 203.449 65.9941C204.634 64.4123 206.401 63.7095 208.445 63.7095C210.942 63.7095 212.987 64.6131 213.971 66.7238C214.35 67.5025 214.5 68.3571 214.5 69.1358V77.6253H212.684V74.9391C212.18 75.9186 211.22 76.7463 210.288 77.1993C209.178 77.7527 207.993 78.0269 206.78 77.9535C205.417 77.902 204.005 77.1993 203.271 76.1463C202.742 75.3432 202.464 74.6135 202.464 73.6609C202.464 72.2285 203.222 70.9747 204.457 70.2206C205.946 69.4174 207.434 69.2925 209.555 68.9644L212.382 68.5873C212.256 67.7327 211.877 66.981 211.22 66.4765C210.49 65.8742 209.454 65.6489 208.421 65.6489C207.159 65.6489 205.973 66.075 205.267 67.0299C205.141 67.1817 205.04 67.3311 204.939 67.4829L203.047 66.6039L203.045 66.5965ZM209.151 70.8401C206.957 71.1657 204.558 71.5673 204.533 73.5532C204.509 74.8094 205.618 75.9382 207.058 76.0655C208.849 76.2418 211.119 75.2109 211.929 73.4283C212.458 72.324 212.458 71.4449 212.458 70.3136C211.449 70.4654 210.539 70.6148 209.151 70.8401Z" fill="#e2e8f0"></path><path d="M221.364 72.4978C221.364 73.6291 221.339 74.305 221.666 74.8828C221.945 75.4852 222.574 75.8378 223.256 75.8868C223.962 75.9627 224.796 75.9382 225.502 75.8109V77.618C224.594 77.8433 223.332 77.8947 222.449 77.7184C221.238 77.4931 220.304 76.9397 219.799 75.9113C219.319 74.9563 219.319 73.9009 219.319 72.5958V65.764H216.266V64.0573H219.319V60.2888H221.364V64.0573H225.502V65.764H221.364V72.4954V72.4978Z" fill="#e2e8f0"></path><path d="M232.137 63.281V64.0597H235.973V65.7664H232.137V77.6204H230.068V65.7664H227.015V64.0597H230.068V63.4059C230.068 62.3016 230.346 61.0699 231.33 60.1908C232.592 59.1354 234.258 59.0595 235.973 59.2358V61.0184C235.267 60.9181 234.533 60.9181 233.879 61.0429C232.592 61.2951 232.137 62.0469 232.137 63.2786V63.281Z" fill="#e2e8f0"></path><path d="M238.775 75.7889C237.638 74.3564 237.235 72.5982 237.235 70.8156C237.235 69.033 237.663 67.2748 238.775 65.8938C239.936 64.4613 241.779 63.6826 243.747 63.6826C245.715 63.6826 247.533 64.4099 248.692 65.8938C249.878 67.3262 250.257 69.0844 250.257 70.8156C250.257 72.6497 249.853 74.3319 248.692 75.7889C247.506 77.2948 245.74 78 243.747 78C241.754 78 239.963 77.2727 238.775 75.7889ZM248.087 70.8156C248.087 69.5105 247.833 68.127 247.078 67.123C246.323 66.119 245.058 65.6171 243.747 65.6171C242.436 65.6171 241.174 66.119 240.441 67.123C239.658 68.127 239.405 69.508 239.405 70.8156C239.405 72.1232 239.658 73.5287 240.441 74.5327C241.171 75.5366 242.433 76.0656 243.747 76.0656C245.061 76.0656 246.32 75.5391 247.078 74.5327C247.836 73.5263 248.087 72.1722 248.087 70.8156Z" fill="#e2e8f0"></path><path d="M261.03 63.9593V65.8938C260.45 65.693 259.743 65.5681 258.986 65.6171C257.925 65.6416 256.993 65.9942 256.361 66.621C255.15 67.7523 255.099 69.2338 255.099 71.0678V77.6229H253.029V64.0597H254.872V66.0701C255.15 65.5926 255.529 65.1665 256.033 64.7649C256.917 64.0377 258.053 63.7095 259.138 63.6851C259.795 63.6851 260.425 63.761 261.03 63.9618V63.9593Z" fill="#e2e8f0"></path><path d="M281.748 69.6109V77.6229H279.703V69.6109C279.703 68.2298 279.627 67.4266 278.667 66.5965C278.139 66.119 277.43 65.8693 276.724 65.8693C275.764 65.8693 274.906 66.2464 274.328 66.9491C273.722 67.7033 273.622 68.4306 273.622 69.2852V69.6109L273.597 77.6229H271.577V69.6109C271.577 68.2298 271.501 67.4266 270.517 66.5965C270.012 66.119 269.306 65.8693 268.573 65.8693C267.638 65.8693 266.755 66.2464 266.202 66.9491C265.596 67.7033 265.495 68.4306 265.495 69.2852V77.6229H263.426V64.0597H265.269V65.8668C266.152 64.6866 267.592 64.0328 269.08 64.0328C270.089 64.0328 271.201 64.4099 272.032 65.0882C272.512 65.4897 272.839 65.9158 273.093 66.3688C273.144 66.2439 273.218 66.1435 273.294 66.0431C274.153 64.7625 275.641 64.0328 277.206 64.0328C278.242 64.0328 279.327 64.4099 280.158 65.0882C281.622 66.2684 281.748 67.6764 281.748 69.6084V69.6109Z" fill="#e2e8f0"></path></g><defs><clipPath id="clip0_932_5491"><rect width="283" height="78" fill="#e2e8f0"></rect></clipPath></defs></svg>
